PathFileType	4	(X/Y/Z)	C:/Users/opensim2020/Desktop/walking_exp_matlab/subject02_walking07_straight_02.trc	
DataRate	CameraRate	NumFrames	NumMarkers	Units	OrigDataRate	OrigDataStartFrame	OrigNumFrames	
100.00	100.00	5	50	mm	100.00	1462	210	
Frame#	Time	LFHD			RFHD			LBHD			RBHD			C7			T10			CLAV			STRN			RBAK			LSHO			LUPA			LELB			LFRM			LWRA			LWRB			LFIN			RSHO			RUPA			RELB			RFRM			RWRA			RWRB			RFIN			LASI			RASI			LPSI			RPSI			LTHI			LKNE			LTIB			LANK			LHEE			LTOE			RTHI			RKNE			RTIB			RANK			RHEE			RTOE			*39			*40			*41			*42			*43			*44			*45			*46			*47			*48			*49			
		X1	Y1	Z1	X2	Y2	Z2	X3	Y3	Z3	X4	Y4	Z4	X5	Y5	Z5	X6	Y6	Z6	X7	Y7	Z7	X8	Y8	Z8	X9	Y9	Z9	X10	Y10	Z10	X11	Y11	Z11	X12	Y12	Z12	X13	Y13	Z13	X14	Y14	Z14	X15	Y15	Z15	X16	Y16	Z16	X17	Y17	Z17	X18	Y18	Z18	X19	Y19	Z19	X20	Y20	Z20	X21	Y21	Z21	X22	Y22	Z22	X23	Y23	Z23	X24	Y24	Z24	X25	Y25	Z25	X26	Y26	Z26	X27	Y27	Z27	X28	Y28	Z28	X29	Y29	Z29	X30	Y30	Z30	X31	Y31	Z31	X32	Y32	Z32	X33	Y33	Z33	X34	Y34	Z34	X35	Y35	Z35	X36	Y36	Z36	X37	Y37	Z37	X38	Y38	Z38	X39	Y39	Z39	X40	Y40	Z40	X41	Y41	Z41	X42	Y42	Z42	X43	Y43	Z43	X44	Y44	Z44	X45	Y45	Z45	X46	Y46	Z46	X47	Y47	Z47	X48	Y48	Z48	X49	Y49	Z49	X50	Y50	Z50	

132	1.310	-935.48541	-457.74075	1718.78723	-1078.67407	-452.84677	1706.50195	-926.54730	-322.63345	1652.80664	-1069.20129	-304.93527	1640.14099	-1013.63312	-261.99667	1510.35327	-1035.48853	-214.01956	1234.49524	-995.58759	-403.53455	1444.54102	-1022.02252	-459.79950	1275.71216	-1095.92480	-213.16908	1340.78015	-832.34521	-314.12314	1470.22156	-771.31787	-245.75760	1279.63159	-774.49347	-203.90005	1146.84717	-759.65088	-159.32210	1025.03137	-770.44745	-167.59868	884.05554	-755.25452	-118.61650	908.05322	-749.05042	-106.79269	841.87927	-1193.70032	-354.68500	1497.20911	-1298.12756	-379.52252	1314.95422	-1330.32605	-444.54221	1184.34985	-1347.99475	-525.23956	1094.55115	-1327.43237	-624.43512	1005.47656	-1363.78015	-588.58966	981.63220	-1366.04224	-652.54791	948.73291	-918.46033	-459.30145	976.34137	-1174.33801	-433.81427	960.59595	-979.40289	-240.78018	1015.04596	-1092.46765	-227.01224	1017.21533	-842.84460	-457.62534	673.39050	-875.83423	-495.38416	476.74695	-875.53009	-514.18439	284.09140	-891.36560	-613.46564	79.82103	-948.93689	-600.48590	43.83128	-859.02844	-766.74988	91.82255	-1216.59778	-303.41202	660.28815	-1170.20178	-259.83322	454.09796	-1167.00598	-170.11880	286.88754	-1121.97632	-106.65778	104.31094	-1062.84094	-65.88638	55.25926	-1146.19995	-248.08516	35.43575	-1019.38953	-358.52475	1795.14893																														 
133	1.320	-933.51630	-466.60101	1717.17688	-1076.90588	-462.10995	1705.21130	-924.89545	-331.61331	1651.65613	-1067.64551	-314.04587	1639.09924	-1012.00806	-271.11371	1508.99744	-1033.83020	-223.61156	1233.06641	-993.93323	-412.85498	1443.55493	-1020.52783	-469.90964	1274.91443	-1094.84778	-222.36893	1339.44031	-830.73932	-323.31500	1468.99133	-769.65540	-256.50012	1277.99561	-772.58740	-213.86595	1145.38452	-757.87177	-169.98940	1023.38568	-768.64813	-178.16823	882.40192	-753.25000	-129.05855	906.45966	-747.28650	-117.26114	840.41547	-1192.21667	-363.77899	1495.88110	-1295.84338	-388.87445	1313.28845	-1328.09448	-454.40866	1182.94836	-1345.66211	-535.48120	1093.56506	-1324.86353	-635.05603	1004.95062	-1361.12927	-599.24005	980.79291	-1363.43713	-663.33051	948.28802	-917.16101	-470.01328	975.34692	-1173.05701	-443.73465	959.34930	-977.71265	-251.32463	1013.59650	-1090.63818	-237.07722	1015.97552	-842.08728	-470.81442	672.90582	-874.58295	-507.48666	476.05435	-874.15869	-524.44891	283.09644	-891.63397	-621.15308	77.82566	-949.15985	-607.86023	42.07241	-860.65295	-774.81561	88.85767	-1215.79382	-311.25317	659.72046	-1170.13538	-266.26309	453.79572	-1166.89624	-173.94238	287.87350	-1122.35498	-107.66171	106.19897	-1063.13940	-66.31851	57.70984	-1146.48926	-248.19774	35.40920	-1017.63428	-367.90009	1793.81494																														 
134	1.330	-931.75311	-475.67197	1715.81860	-1075.07007	-471.38779	1703.95483	-923.43927	-340.47165	1650.57886	-1066.00989	-323.36893	1638.29260	-1010.56909	-280.40958	1507.77539	-1032.04761	-233.35698	1231.59021	-992.30292	-422.12000	1442.56921	-1018.84009	-479.19727	1274.01563	-1092.65771	-231.89845	1337.88269	-829.06464	-332.61209	1467.82092	-767.82983	-266.41748	1276.47815	-770.55957	-224.38203	1143.84180	-755.74298	-180.58694	1021.81244	-766.71118	-189.46364	880.79285	-751.00873	-140.21512	904.77826	-745.12390	-128.00221	838.53406	-1190.56165	-372.88739	1494.61377	-1293.76685	-398.10544	1311.79333	-1325.78687	-463.94733	1181.56506	-1343.18762	-545.34149	1092.29529	-1322.12146	-645.25995	1004.02557	-1358.25293	-609.51569	979.72345	-1360.55579	-673.85870	947.41718	-915.60962	-481.01923	974.49420	-1171.48572	-453.98483	958.20520	-975.74225	-261.75732	1012.22296	-1088.60229	-247.42317	1014.71503	-840.95587	-484.23776	672.67200	-873.24811	-519.33423	475.25339	-872.94196	-533.88281	281.90735	-891.79681	-627.66925	75.59481	-948.89709	-612.90820	39.93853	-862.50244	-781.54358	85.08154	-1214.97559	-319.32007	659.15698	-1170.02441	-272.91513	453.46323	-1166.74805	-177.96774	288.99576	-1122.84619	-108.78392	108.32022	-1063.70239	-67.03754	60.52915	-1146.72229	-248.43486	35.47336	-1015.58319	-377.17459	1792.64966																														 
135	1.340	-930.16071	-485.02957	1714.34155	-1073.22498	-480.61325	1702.72363	-921.68738	-349.55539	1649.43921	-1064.29956	-332.50079	1637.21960	-1008.67145	-289.34180	1506.40186	-1030.13184	-243.20074	1230.04736	-990.57318	-431.41925	1441.65991	-1017.15570	-489.10138	1273.33057	-1090.98157	-241.39835	1336.34692	-827.33502	-341.86630	1466.75769	-765.78540	-276.59631	1275.19519	-768.58563	-235.29716	1142.40430	-753.64337	-191.99255	1020.23505	-764.71863	-201.10019	879.01801	-748.72833	-152.42166	903.05304	-742.96472	-139.81017	836.71368	-1188.81104	-381.99008	1493.41479	-1291.91638	-407.20065	1310.49841	-1323.68542	-473.19699	1180.19763	-1340.54138	-554.83484	1091.00159	-1319.44690	-655.02844	1003.27612	-1355.40051	-619.26782	978.56464	-1357.55066	-683.60260	946.40710	-913.89655	-492.19077	973.69147	-1169.79468	-464.49326	957.16840	-973.53204	-272.21600	1010.86707	-1086.41492	-258.00671	1013.46405	-839.66187	-497.20947	672.19092	-871.76898	-530.87048	474.27832	-871.88928	-542.41827	280.52469	-891.98737	-632.89539	72.98127	-949.13330	-617.04309	37.56693	-864.51825	-787.04773	80.64319	-1214.14514	-327.64673	658.64221	-1169.93372	-279.77283	453.33182	-1166.60938	-182.14415	290.35999	-1123.34399	-110.05959	110.65725	-1064.13550	-67.68112	63.62687	-1146.97168	-248.67798	35.51049	-1013.98871	-386.58197	1791.50293																														 
136	1.350	-928.29089	-494.09048	1713.07703	-1071.26477	-489.82339	1701.49487	-919.94287	-358.53543	1648.57019	-1062.59033	-341.56909	1636.16760	-1006.99164	-298.77686	1504.94312	-1028.13855	-253.27339	1228.43628	-988.73260	-440.89438	1440.83203	-1015.32239	-499.09995	1272.68298	-1089.53931	-250.90416	1334.84082	-825.58417	-351.13629	1465.71008	-763.53790	-286.47186	1273.90808	-766.32678	-246.24548	1140.72900	-751.58771	-203.63225	1018.40509	-762.49628	-212.89154	877.27094	-746.17548	-164.46652	900.97003	-740.52234	-152.32442	834.69177	-1187.01611	-391.15067	1492.16394	-1289.57886	-416.30060	1309.14246	-1321.18494	-482.27740	1178.76794	-1337.93176	-564.10028	1089.74829	-1316.64478	-664.47711	1002.19348	-1352.43091	-628.67767	977.23590	-1354.47229	-693.07513	945.12579	-911.92389	-503.70529	973.14709	-1167.95325	-475.25769	956.22119	-971.20251	-283.22427	1009.40753	-1083.95898	-268.83377	1012.10168	-838.25757	-509.96921	671.68878	-870.23871	-542.05829	473.14270	-870.75806	-550.40350	278.96649	-892.07727	-637.00873	70.00151	-948.93793	-619.90186	34.52651	-866.64008	-791.39941	75.75831	-1213.18701	-336.15201	658.25934	-1169.90417	-286.77777	453.30054	-1166.34583	-186.50105	291.87222	-1123.76135	-111.44812	113.27103	-1064.53198	-68.48035	66.92345	-1147.42761	-248.70000	35.32559	-1012.20953	-395.84464	1790.53394																														 
